<svg width="40" height="40" viewBox="0 0 40 40" fill="none" xmlns="http://www.w3.org/2000/svg">
<path fill-rule="evenodd" clip-rule="evenodd" d="M37.792 0H2.208C0.988 0 0 0.988 0 2.208V37.792C0 39.012 0.988 40 2.208 40H21.364V24.51H16.152V18.474H21.364V14.02C21.364 8.852 24.52 6.04 29.13 6.04C31.338 6.04 33.234 6.204 33.788 6.278V11.678H30.592C28.084 11.678 27.6 12.87 27.6 14.618V18.472H33.578L32.798 24.508H27.598V40H37.792C39.012 40 40 39.012 40 37.792V2.208C40 0.988 39.012 0 37.792 0Z" fill="#F9AA01"/>
</svg>
