<svg width="24" height="24" viewBox="0 0 26 26" fill="none" xmlns="http://www.w3.org/2000/svg">
<path d="M13 0.5C16.3962 0.5 16.82 0.5125 18.1525 0.575C19.4837 0.6375 20.39 0.84625 21.1875 1.15625C22.0125 1.47375 22.7075 1.90375 23.4025 2.5975C24.0381 3.22237 24.5299 3.97824 24.8438 4.8125C25.1525 5.60875 25.3625 6.51625 25.425 7.8475C25.4838 9.18 25.5 9.60375 25.5 13C25.5 16.3962 25.4875 16.82 25.425 18.1525C25.3625 19.4837 25.1525 20.39 24.8438 21.1875C24.5308 22.0222 24.0389 22.7783 23.4025 23.4025C22.7775 24.0379 22.0216 24.5297 21.1875 24.8438C20.3912 25.1525 19.4837 25.3625 18.1525 25.425C16.82 25.4838 16.3962 25.5 13 25.5C9.60375 25.5 9.18 25.4875 7.8475 25.425C6.51625 25.3625 5.61 25.1525 4.8125 24.8438C3.97791 24.5306 3.22191 24.0387 2.5975 23.4025C1.96176 22.7777 1.46991 22.0218 1.15625 21.1875C0.84625 20.3912 0.6375 19.4837 0.575 18.1525C0.51625 16.82 0.5 16.3962 0.5 13C0.5 9.60375 0.5125 9.18 0.575 7.8475C0.6375 6.515 0.84625 5.61 1.15625 4.8125C1.46905 3.97772 1.961 3.22165 2.5975 2.5975C3.22209 1.96154 3.97804 1.46966 4.8125 1.15625C5.61 0.84625 6.515 0.6375 7.8475 0.575C9.18 0.51625 9.60375 0.5 13 0.5ZM13 6.75C11.3424 6.75 9.75268 7.40848 8.58058 8.58058C7.40848 9.75268 6.75 11.3424 6.75 13C6.75 14.6576 7.40848 16.2473 8.58058 17.4194C9.75268 18.5915 11.3424 19.25 13 19.25C14.6576 19.25 16.2473 18.5915 17.4194 17.4194C18.5915 16.2473 19.25 14.6576 19.25 13C19.25 11.3424 18.5915 9.75268 17.4194 8.58058C16.2473 7.40848 14.6576 6.75 13 6.75ZM21.125 6.4375C21.125 6.0231 20.9604 5.62567 20.6674 5.33265C20.3743 5.03962 19.9769 4.875 19.5625 4.875C19.1481 4.875 18.7507 5.03962 18.4576 5.33265C18.1646 5.62567 18 6.0231 18 6.4375C18 6.8519 18.1646 7.24933 18.4576 7.54235C18.7507 7.83538 19.1481 8 19.5625 8C19.9769 8 20.3743 7.83538 20.6674 7.54235C20.9604 7.24933 21.125 6.8519 21.125 6.4375ZM13 9.25C13.9946 9.25 14.9484 9.64509 15.6517 10.3483C16.3549 11.0516 16.75 12.0054 16.75 13C16.75 13.9946 16.3549 14.9484 15.6517 15.6517C14.9484 16.3549 13.9946 16.75 13 16.75C12.0054 16.75 11.0516 16.3549 10.3483 15.6517C9.64509 14.9484 9.25 13.9946 9.25 13C9.25 12.0054 9.64509 11.0516 10.3483 10.3483C11.0516 9.64509 12.0054 9.25 13 9.25Z" fill="white"/>
</svg>
