<svg width="23" height="20" viewBox="0 0 23 20" fill="none" xmlns="http://www.w3.org/2000/svg">
<path d="M11.3465 10C9.8686 10 8.60346 9.51042 7.55105 8.53125C6.49864 7.55208 5.97243 6.375 5.97243 5C5.97243 3.625 6.49864 2.44792 7.55105 1.46875C8.60346 0.489584 9.8686 0 11.3465 0C12.8243 0 14.0894 0.489584 15.1418 1.46875C16.1943 2.44792 16.7205 3.625 16.7205 5C16.7205 6.375 16.1943 7.55208 15.1418 8.53125C14.0894 9.51042 12.8243 10 11.3465 10ZM0.598419 20V16.5C0.598419 15.7917 0.794571 15.1404 1.18687 14.5463C1.57828 13.9529 2.09867 13.5 2.74803 13.1875C4.13631 12.5417 5.54699 12.0571 6.98006 11.7338C8.41313 11.4113 9.8686 11.25 11.3465 11.25C12.8243 11.25 14.2798 11.4113 15.7128 11.7338C17.1459 12.0571 18.5566 12.5417 19.9449 13.1875C20.5942 13.5 21.1146 13.9529 21.506 14.5463C21.8983 15.1404 22.0945 15.7917 22.0945 16.5V20H0.598419Z" fill="white"/>
</svg>
