<svg width="24" height="24" viewBox="0 0 26 26" fill="none" xmlns="http://www.w3.org/2000/svg">
<path fill-rule="evenodd" clip-rule="evenodd" d="M2 0C1.46957 0 0.960859 0.210714 0.585786 0.585786C0.210714 0.960859 0 1.46957 0 2V24C0 24.5304 0.210714 25.0391 0.585786 25.4142C0.960859 25.7893 1.46957 26 2 26H24C24.5304 26 25.0391 25.7893 25.4142 25.4142C25.7893 25.0391 26 24.5304 26 24V2C26 1.46957 25.7893 0.960859 25.4142 0.585786C25.0391 0.210714 24.5304 0 24 0H2ZM4.1 10H7.9V22H4.1V10ZM8.15 6.01C8.15 6.58022 7.92348 7.12708 7.52028 7.53028C7.11708 7.93348 6.57022 8.16 6 8.16C5.42978 8.16 4.88292 7.93348 4.47972 7.53028C4.07652 7.12708 3.85 6.58022 3.85 6.01C3.85 5.43978 4.07652 4.89292 4.47972 4.48972C4.88292 4.08652 5.42978 3.86 6 3.86C6.57022 3.86 7.11708 4.08652 7.52028 4.48972C7.92348 4.89292 8.15 5.43978 8.15 6.01ZM22 14.714C22 11.104 19.666 9.7 17.348 9.7C16.5904 9.6632 15.8362 9.82232 15.158 10.162C14.644 10.422 14.106 11.01 13.69 12.038H13.584V10H10V22.01H13.812V15.62C13.758 14.966 13.966 14.12 14.394 13.618C14.824 13.114 15.434 12.994 15.9 12.934H16.046C17.258 12.934 18.158 13.684 18.158 15.574V22.008H21.97L22 14.714Z" fill="white"/>
</svg>
