<svg width="16" height="18" viewBox="0 0 18 19" fill="none" xmlns="http://www.w3.org/2000/svg">
<path d="M9 10.9502V1.9502C9 1.66686 9.096 1.4292 9.288 1.2372C9.47933 1.04586 9.71667 0.950195 10 0.950195H17C17.2833 0.950195 17.5207 1.04586 17.712 1.2372C17.904 1.4292 18 1.66686 18 1.9502V6.9502C18 7.23353 17.904 7.47086 17.712 7.6622C17.5207 7.8542 17.2833 7.9502 17 7.9502H12L9 10.9502ZM16.95 19.0002C14.8 19.0002 12.7043 18.5209 10.663 17.5622C8.621 16.6042 6.81267 15.3375 5.238 13.7622C3.66267 12.1875 2.396 10.3792 1.438 8.3372C0.479334 6.29586 0 4.2002 0 2.0502C0 1.7502 0.0999999 1.5002 0.3 1.3002C0.5 1.1002 0.75 1.0002 1.05 1.0002H5.1C5.33333 1.0002 5.54167 1.0752 5.725 1.2252C5.90833 1.3752 6.01667 1.56686 6.05 1.8002L6.7 5.3002C6.73333 5.53353 6.72933 5.74586 6.688 5.93719C6.646 6.12919 6.55 6.3002 6.4 6.4502L4 8.9002C4.7 10.1002 5.575 11.2252 6.625 12.2752C7.675 13.3252 8.83333 14.2335 10.1 15.0002L12.45 12.6502C12.6 12.5002 12.796 12.3875 13.038 12.3122C13.2793 12.2375 13.5167 12.2169 13.75 12.2502L17.2 12.9502C17.4333 13.0002 17.625 13.1125 17.775 13.2872C17.925 13.4625 18 13.6669 18 13.9002V17.9502C18 18.2502 17.9 18.5002 17.7 18.7002C17.5 18.9002 17.25 19.0002 16.95 19.0002Z" fill="white"/>
</svg>
