<svg width="22" height="22" viewBox="0 0 22 22" fill="none" xmlns="http://www.w3.org/2000/svg">
<path d="M11 11.0002C9.53331 11.0002 8.27776 10.4779 7.23331 9.4335C6.18887 8.38905 5.66665 7.1335 5.66665 5.66683C5.66665 4.20016 6.18887 2.94461 7.23331 1.90016C8.27776 0.855719 9.53331 0.333496 11 0.333496C12.4666 0.333496 13.7222 0.855719 14.7666 1.90016C15.8111 2.94461 16.3333 4.20016 16.3333 5.66683C16.3333 7.1335 15.8111 8.38905 14.7666 9.4335C13.7222 10.4779 12.4666 11.0002 11 11.0002ZM0.333313 21.6668V17.9335C0.333313 17.1779 0.52798 16.4833 0.917313 15.8495C1.30576 15.2166 1.8222 14.7335 2.46665 14.4002C3.84442 13.7113 5.24442 13.1944 6.66665 12.8495C8.08887 12.5055 9.53331 12.3335 11 12.3335C12.4666 12.3335 13.9111 12.5055 15.3333 12.8495C16.7555 13.1944 18.1555 13.7113 19.5333 14.4002C20.1778 14.7335 20.6942 15.2166 21.0826 15.8495C21.472 16.4833 21.6666 17.1779 21.6666 17.9335V21.6668H0.333313Z" fill="white"/>
</svg>
