<svg width="23" height="13" viewBox="0 0 23 13" fill="none" xmlns="http://www.w3.org/2000/svg">
<path d="M12.1771 5.00005C11.6745 3.62984 10.671 2.48128 9.35294 1.76769C8.03488 1.0541 6.49185 0.823977 5.01041 1.12005C2.62499 1.58005 0.687489 3.41005 0.187489 5.70005C-0.014092 6.57715 -0.0081844 7.48649 0.204777 8.36111C0.417738 9.23573 0.832329 10.0534 1.41802 10.7538C2.00372 11.4542 2.7456 12.0196 3.58905 12.4084C4.4325 12.7971 5.35604 12.9993 6.29166 13.0001C7.58326 13.0001 8.84306 12.6154 9.89722 11.8989C10.9514 11.1824 11.748 10.1696 12.1771 9.00005H16.7083V11.0001C16.7083 12.1001 17.6458 13.0001 18.7917 13.0001C19.9375 13.0001 20.875 12.1001 20.875 11.0001V9.00005C22.0208 9.00005 22.9583 8.10005 22.9583 7.00005C22.9583 5.90005 22.0208 5.00005 20.875 5.00005H12.1771ZM6.29166 9.00005C5.14582 9.00005 4.20832 8.10005 4.20832 7.00005C4.20832 5.90005 5.14582 5.00005 6.29166 5.00005C7.43749 5.00005 8.37499 5.90005 8.37499 7.00005C8.37499 8.10005 7.43749 9.00005 6.29166 9.00005Z" fill="white"/>
</svg>
