<svg width="15" height="16" viewBox="0 0 15 16" fill="none" xmlns="http://www.w3.org/2000/svg">
<path d="M0 14.5C0 15.3281 0.68703 16 1.53383 16H12.782C13.6288 16 14.3158 15.3281 14.3158 14.5V6H0V14.5ZM2.04511 8.5C2.04511 8.225 2.27519 8 2.55639 8H5.62406C5.90526 8 6.13534 8.225 6.13534 8.5V11.5C6.13534 11.775 5.90526 12 5.62406 12H2.55639C2.27519 12 2.04511 11.775 2.04511 11.5V8.5ZM12.782 2H11.2481V0.5C11.2481 0.225 11.018 0 10.7368 0H9.71429C9.43308 0 9.20301 0.225 9.20301 0.5V2H5.11278V0.5C5.11278 0.225 4.88271 0 4.6015 0H3.57895C3.29774 0 3.06767 0.225 3.06767 0.5V2H1.53383C0.68703 2 0 2.67188 0 3.5V5H14.3158V3.5C14.3158 2.67188 13.6288 2 12.782 2Z" fill="#4E4B59"/>
</svg>
