<svg width="15" height="16" viewBox="0 0 15 16" fill="none" xmlns="http://www.w3.org/2000/svg">
<path d="M14.3158 14.5C14.3158 15.3281 13.6288 16 12.782 16H1.53384C0.687037 16 5.72205e-06 15.3281 5.72205e-06 14.5V6H14.3158V14.5ZM12.2707 8.5C12.2707 8.225 12.0406 8 11.7594 8H8.69174C8.41053 8 8.18046 8.225 8.18046 8.5V11.5C8.18046 11.775 8.41053 12 8.69174 12H11.7594C12.0406 12 12.2707 11.775 12.2707 11.5V8.5ZM1.53384 2H3.06768V0.5C3.06768 0.225 3.29775 0 3.57895 0H4.60151C4.88271 0 5.11279 0.225 5.11279 0.5V2H9.20301V0.5C9.20301 0.225 9.43309 0 9.71429 0H10.7368C11.0181 0 11.2481 0.225 11.2481 0.5V2H12.782C13.6288 2 14.3158 2.67188 14.3158 3.5V5H5.72205e-06V3.5C5.72205e-06 2.67188 0.687037 2 1.53384 2Z" fill="#4E4B59"/>
</svg>
