<svg width="24" height="24" viewBox="0 0 24 24" fill="none" xmlns="http://www.w3.org/2000/svg">
<path d="M21.1264 7.70108L9.93838 18.8891C9.84094 18.9869 9.72515 19.0645 9.59766 19.1174C9.47016 19.1704 9.33347 19.1976 9.19543 19.1976C9.05738 19.1976 8.92069 19.1704 8.7932 19.1174C8.6657 19.0645 8.54992 18.9869 8.45247 18.8891L3.55771 13.9943C3.46015 13.8968 3.38275 13.781 3.32995 13.6535C3.27715 13.526 3.24997 13.3894 3.24997 13.2514C3.24997 13.1134 3.27715 12.9768 3.32995 12.8493C3.38275 12.7218 3.46015 12.606 3.55771 12.5084C3.65528 12.4109 3.77111 12.3335 3.89858 12.2807C4.02606 12.2279 4.16269 12.2007 4.30067 12.2007C4.43865 12.2007 4.57527 12.2279 4.70275 12.2807C4.83023 12.3335 4.94605 12.4109 5.04362 12.5084L9.1963 16.6611L19.6422 6.21692C19.8393 6.01988 20.1065 5.90918 20.3852 5.90918C20.6639 5.90918 20.9311 6.01988 21.1282 6.21692C21.3252 6.41397 21.4359 6.68121 21.4359 6.95988C21.4359 7.23854 21.3252 7.50579 21.1282 7.70283L21.1264 7.70108Z" fill="#FAFAFA"/>
</svg>
