<svg width="24" height="25" viewBox="0 0 24 25" fill="none" xmlns="http://www.w3.org/2000/svg">
<path d="M19.5456 18.2244C19.7495 18.4283 19.864 18.7047 19.864 18.993C19.864 19.2813 19.7495 19.5577 19.5456 19.7616C19.3418 19.9654 19.0653 20.0799 18.7771 20.0799C18.4888 20.0799 18.2123 19.9654 18.0085 19.7616L12.2677 14.019L6.52509 19.7598C6.32125 19.9636 6.04478 20.0781 5.75651 20.0781C5.46824 20.0781 5.19178 19.9636 4.98794 19.7598C4.7841 19.5559 4.66959 19.2795 4.66959 18.9912C4.66959 18.7029 4.7841 18.4265 4.98794 18.2226L10.7305 12.4818L4.98975 6.73922C4.78591 6.53538 4.67139 6.25892 4.67139 5.97064C4.67139 5.68237 4.78591 5.40591 4.98975 5.20207C5.19359 4.99823 5.47005 4.88372 5.75832 4.88372C6.04659 4.88372 6.32306 4.99823 6.5269 5.20207L12.2677 10.9447L18.0103 5.20117C18.2141 4.99733 18.4906 4.88281 18.7789 4.88281C19.0671 4.88281 19.3436 4.99733 19.5474 5.20117C19.7513 5.405 19.8658 5.68147 19.8658 5.96974C19.8658 6.25801 19.7513 6.53448 19.5474 6.73831L13.8048 12.4818L19.5456 18.2244Z" fill="#1E123B"/>
</svg>
