<svg width="24" height="25" viewBox="0 0 24 25" fill="none" xmlns="http://www.w3.org/2000/svg">
<g clip-path="url(#clip0_59_34)">
<path fill-rule="evenodd" clip-rule="evenodd" d="M19.7757 3.94214C19.2331 3.3997 18.4972 3.09497 17.73 3.09497C16.9628 3.09497 16.2269 3.3997 15.6843 3.94214L15.0024 4.62499L19.7766 9.39919L20.4576 8.7173C20.7263 8.44861 20.9395 8.12962 21.0849 7.77853C21.2304 7.42745 21.3052 7.05116 21.3052 6.67114C21.3052 6.29113 21.2304 5.91484 21.0849 5.56375C20.9395 5.21267 20.7263 4.89368 20.4576 4.62499L19.7757 3.94214ZM18.4119 10.763L13.6377 5.98877L4.87053 14.7569C4.67868 14.9488 4.54466 15.1908 4.48377 15.4552L3.49132 19.752C3.45434 19.9115 3.45858 20.0778 3.50364 20.2352C3.54871 20.3926 3.63311 20.536 3.74889 20.6518C3.86468 20.7676 4.00803 20.852 4.16546 20.897C4.32288 20.9421 4.48918 20.9463 4.6487 20.9094L8.94644 19.9179C9.21052 19.8568 9.45214 19.7228 9.64377 19.5311L18.4119 10.763Z" fill="white"/>
</g>
<defs>
<clipPath id="clip0_59_34">
<rect width="23.1476" height="23.1476" fill="white" transform="translate(0.359619 0.894287)"/>
</clipPath>
</defs>
</svg>
