<svg width="24" height="24" viewBox="0 0 24 24" fill="none" xmlns="http://www.w3.org/2000/svg">
<g clip-path="url(#clip0_59_19)">
<path fill-rule="evenodd" clip-rule="evenodd" d="M19.4161 3.0476C18.8735 2.50516 18.1376 2.20044 17.3704 2.20044C16.6031 2.20044 15.8673 2.50516 15.3247 3.0476L14.6428 3.73046L19.417 8.50466L20.0979 7.82277C20.3667 7.55408 20.5799 7.23509 20.7253 6.884C20.8707 6.53292 20.9456 6.15663 20.9456 5.77661C20.9456 5.3966 20.8707 5.02031 20.7253 4.66922C20.5799 4.31814 20.3667 3.99915 20.0979 3.73046L19.4161 3.0476ZM18.0523 9.86844L13.2781 5.09424L4.51091 13.8624C4.31906 14.0543 4.18504 14.2962 4.12415 14.5607L3.1317 18.8574C3.09472 19.017 3.09896 19.1833 3.14402 19.3407C3.18909 19.4981 3.27349 19.6415 3.38927 19.7572C3.50506 19.873 3.64842 19.9574 3.80584 20.0025C3.96326 20.0476 4.12956 20.0518 4.28908 20.0148L8.58682 19.0233C8.8509 18.9623 9.09253 18.8283 9.28415 18.6366L18.0523 9.86844Z" fill="#1E123B"/>
</g>
<defs>
<clipPath id="clip0_59_19">
<rect width="23.1476" height="23.1476" fill="white"/>
</clipPath>
</defs>
</svg>
