<svg version="1.2" xmlns="http://www.w3.org/2000/svg" viewBox="0 0 692 528" width="692" height="528">
	<title>detail-icon-svg</title>
	<style>
		.s0 { fill: #ffffff } 
	</style>
	<path id="Layer" fill-rule="evenodd" class="s0" d="m187.8 516.5l-179.7-253.5 180.6-253.5h483.2v507zm48.7-218.9q14.3 0 24.5-10.1 10.2-10 10.2-24.4 0-14.5-10.2-24.6-10.1-10.1-24.4-10.1-14.4 0-24.5 10.1-10.1 10-10.1 24.4 0 14.5 10.1 24.6 10.1 10.1 24.4 10.1zm140.8 0q14.3 0 24.5-10.1 10.2-10 10.2-24.4 0-14.5-10.1-24.6-10.2-10.1-24.5-10.1-14.4 0-24.5 10.1-10.1 10-10.1 24.4 0 14.5 10.1 24.6 10.1 10.1 24.4 10.1zm140.8 0q14.3 0 24.5-10.1 10.2-10 10.2-24.4 0-14.5-10.1-24.6-10.2-10.1-24.5-10.1-14.4 0-24.5 10.1-10.1 10-10.1 24.4 0 14.5 10.1 24.6 10.1 10.1 24.4 10.1z"/>
</svg>